<svg width="31" height="32" viewBox="0 0 31 32" fill="none" xmlns="http://www.w3.org/2000/svg">
<path d="M14.3333 31H2.66667C2.22464 31 1.80072 30.8244 1.48816 30.5118C1.17559 30.1993 1 29.7754 1 29.3333V2.66667C1 2.22464 1.17559 1.80072 1.48816 1.48816C1.80072 1.17559 2.22464 1 2.66667 1H26C26.442 1 26.866 1.17559 27.1785 1.48816C27.4911 1.80072 27.6667 2.22464 27.6667 2.66667V12.25" stroke="black" stroke-width="2" stroke-linecap="round" stroke-linejoin="round"/>
<path d="M25.6967 18.4999C27.705 18.4999 29.3333 20.0666 29.3333 21.9999C29.3333 24.5166 26.9083 26.6666 25.6967 27.8333C24.8883 28.6108 23.8792 29.3891 22.6667 30.1666C21.455 29.3891 20.4442 28.6108 19.6367 27.8333C18.4242 26.6666 16 24.5166 16 21.9999C16 20.0666 17.6283 18.4999 19.6367 18.4999C20.9008 18.4999 22.015 19.1216 22.6667 20.0649C23.0075 19.5785 23.4612 19.1819 23.9889 18.9093C24.5167 18.6367 25.1027 18.4963 25.6967 18.4999V18.4999Z" stroke="black" stroke-width="2" stroke-linejoin="round"/>
<path d="M7.6665 7.66663H20.9998" stroke="black" stroke-width="2" stroke-linecap="round"/>
</svg>
