<svg width="40" height="40" viewBox="0 0 40 40" fill="none" xmlns="http://www.w3.org/2000/svg">
<path d="M33.75 15V17.5H35V22.5C35 23.4946 34.6049 24.4484 33.9017 25.1517C33.1984 25.8549 32.2446 26.25 31.25 26.25C30.2554 26.25 29.3016 25.8549 28.5984 25.1517C27.8951 24.4484 27.5 23.4946 27.5 22.5V17.5H28.75V15H25V22.5C25.0019 23.9401 25.5002 25.3355 26.411 26.451C27.3218 27.5665 28.5894 28.3339 30 28.6238V30C30 31.3261 29.4732 32.5979 28.5355 33.5355C27.5979 34.4732 26.3261 35 25 35C23.6739 35 22.4022 34.4732 21.4645 33.5355C20.5268 32.5979 20 31.3261 20 30V27.27C20.834 26.9751 21.5369 26.3949 21.9845 25.6319C22.4321 24.8689 22.5956 23.9722 22.446 23.1003C22.2964 22.2285 21.8434 21.4375 21.1671 20.8674C20.4907 20.2972 19.6346 19.9845 18.75 19.9845C17.8654 19.9845 17.0093 20.2972 16.3329 20.8674C15.6566 21.4375 15.2036 22.2285 15.054 23.1003C14.9044 23.9722 15.0679 24.8689 15.5155 25.6319C15.9631 26.3949 16.666 26.9751 17.5 27.27V30C17.5 31.9891 18.2902 33.8968 19.6967 35.3033C21.1032 36.7098 23.0109 37.5 25 37.5C26.9891 37.5 28.8968 36.7098 30.3033 35.3033C31.7098 33.8968 32.5 31.9891 32.5 30V28.6238C33.9106 28.3339 35.1782 27.5665 36.089 26.451C36.9998 25.3355 37.4981 23.9401 37.5 22.5V15H33.75ZM18.75 22.5C18.9972 22.5 19.2389 22.5733 19.4445 22.7107C19.65 22.848 19.8102 23.0432 19.9049 23.2716C19.9995 23.5001 20.0242 23.7514 19.976 23.9939C19.9278 24.2363 19.8087 24.4591 19.6339 24.6339C19.4591 24.8087 19.2363 24.9278 18.9939 24.976C18.7514 25.0242 18.5001 24.9995 18.2717 24.9048C18.0432 24.8102 17.848 24.65 17.7107 24.4445C17.5733 24.2389 17.5 23.9972 17.5 23.75C17.5 23.4185 17.6317 23.1005 17.8661 22.8661C18.1005 22.6317 18.4185 22.5 18.75 22.5V22.5Z" fill="#063CC9"/>
<path d="M32.5 5H27.5V2.5H25V5H15V2.5H12.5V5H7.5C6.83696 5 6.20107 5.26339 5.73223 5.73223C5.26339 6.20107 5 6.83696 5 7.5V32.5C5 33.163 5.26339 33.7989 5.73223 34.2678C6.20107 34.7366 6.83696 35 7.5 35H12.5V32.5H7.5V7.5H12.5V10H15V7.5H25V10H27.5V7.5H32.5V12.5H35V7.5C35 6.83696 34.7366 6.20107 34.2678 5.73223C33.7989 5.26339 33.163 5 32.5 5V5Z" fill="#063CC9"/>
</svg>
