<svg width="26" height="29" viewBox="0 0 26 29" fill="none" xmlns="http://www.w3.org/2000/svg">
<path d="M16.7143 7.70312V0H5.10714C4.33527 0 3.71429 0.606055 3.71429 1.35938V14.5H0.464286C0.208929 14.5 0 14.7039 0 14.9531V15.8594C0 16.1086 0.208929 16.3125 0.464286 16.3125H8.64152C8.81562 16.3125 8.97813 16.4088 9.05937 16.5617L10.2143 18.816L13.5107 12.376C13.679 12.0418 14.1723 12.0418 14.3406 12.376L16.3545 16.3125H20.4286C20.9393 16.3125 21.3571 16.7203 21.3571 17.2188C21.3571 17.7172 20.9393 18.125 20.4286 18.125H15.2112L13.9286 15.6215L10.6321 22.0615C10.4638 22.3957 9.97054 22.3957 9.80223 22.0615L7.78259 18.125H3.71429V27.6406C3.71429 28.3939 4.33527 29 5.10714 29H24.6071C25.379 29 26 28.3939 26 27.6406V9.0625H18.1071C17.3411 9.0625 16.7143 8.45078 16.7143 7.70312ZM25.5938 5.94727L19.9121 0.396484C19.6509 0.141602 19.2969 0 18.9254 0H18.5714V7.25H26V6.90449C26 6.54766 25.8549 6.20215 25.5938 5.94727Z" fill="black"/>
</svg>
